<svg width="85" height="85" viewBox="0 0 85 85" fill="none" xmlns="http://www.w3.org/2000/svg">
<path d="M85 42.5C85 65.9721 65.9721 85 42.5 85C19.0279 85 0 65.9721 0 42.5C0 19.0279 19.0279 0 42.5 0C65.9721 0 85 19.0279 85 42.5Z" fill="white"/>
<path d="M25.993 62.156C24.31 62.156 22.946 63.49 22.946 65.135C22.946 66.781 24.31 68.114 25.993 68.114C27.676 68.114 29.04 66.781 29.04 65.135C29.04 63.49 27.676 62.156 25.993 62.156ZM43.788 62.156C42.106 62.156 40.742 63.49 40.742 65.135C40.742 66.781 42.106 68.114 43.788 68.114C45.471 68.114 46.835 66.781 46.835 65.135C46.835 63.49 45.471 62.156 43.788 62.156ZM22.479 30.997L27.895 45.497H49.688L55.877 30.997H22.479Z" fill="#18CEF6"/>
<path d="M58.717 17L49.047 45.181H23.814L17.287 27.213H46.398V24.943H14L21.722 46.201L15.441 56.844H51.235V54.573H19.458L23.665 47.448H50.716L60.386 19.268H70.964V17H58.717ZM25.317 58.861C22.183 58.863 19.643 61.345 19.641 64.409C19.643 67.474 22.183 69.957 25.317 69.958C28.45 69.956 30.989 67.473 30.989 64.409C30.989 61.345 28.45 58.863 25.317 58.861ZM25.317 67.688C23.464 67.685 21.967 66.22 21.964 64.409C21.967 62.599 23.464 61.135 25.317 61.132C27.166 61.135 28.666 62.599 28.669 64.409C28.666 66.221 27.166 67.685 25.317 67.688ZM43.111 58.861C39.977 58.863 37.438 61.345 37.437 64.409C37.438 67.474 39.977 69.957 43.111 69.958C46.245 69.956 48.783 67.473 48.785 64.409C48.783 61.345 46.245 58.863 43.111 58.861ZM43.111 67.688C41.26 67.685 39.762 66.22 39.759 64.409C39.762 62.599 41.26 61.135 43.111 61.132C44.962 61.135 46.461 62.599 46.464 64.409C46.461 66.221 44.962 67.685 43.111 67.688Z" fill="#233251"/>
</svg>
